# xmcd
#
# Track frame offsets: 
#        150
#        12727
#        25650
#        37250
#        51795
#        71037
#        86627
#        101450
#        115712
#        134950
#        149257
#        164742
#        179645
#        192702
#        206865
#        218462
#        234200
#        245512
#
# Disc length: 3441 seconds
#
# Revision: 3
# Processed by: cddbd v1.4PL0 Copyright (c) Steve Scherf et al.
# Submitted via: ExactAudioCopy v0.90a11
#
DISCID=180d6f12
DTITLE=Chris LeDoux - American Cowboy - Disc 3
DYEAR=1994
DGENRE=Country
TTITLE0=Workin' Man's Dollar
TTITLE1=Cadillac Ranch
TTITLE2=Whatcha Gonna Do With A Cowboy (Duet With Garth Brooks)
TTITLE3=Call Of The Wild
TTITLE4=Seventeen
TTITLE5=Hooked On An 8 Second Ride
TTITLE6=Cadillac Cowboy
TTITLE7=Look At You Girl
TTITLE8=Little Long Haired Outlaw
TTITLE9=Even Cowboys Like A Little Rock And Roll
TTITLE10=For Your Love
TTITLE11=Wild And Wooly
TTITLE12=Get Back On The Pony
TTITLE13=She's Tough
TTITLE14=Powder River Home
TTITLE15=Western Skies
TTITLE16=Two In A Million
TTITLE17=Couldn't Help Falling (For You)
EXTD=
EXTT0=
EXTT1=
EXTT2=
EXTT3=
EXTT4=
EXTT5=
EXTT6=
EXTT7=
EXTT8=
EXTT9=
EXTT10=
EXTT11=
EXTT12=
EXTT13=
EXTT14=
EXTT15=
EXTT16=
EXTT17=
PLAYORDER=
